<?xml version="1.0" standalone="no"?><!DOCTYPE svg PUBLIC "-//W3C//DTD SVG 1.1//EN" "http://www.w3.org/Graphics/SVG/1.1/DTD/svg11.dtd"><svg t="1627393985839" class="icon" viewBox="0 0 1024 1024" version="1.1" xmlns="http://www.w3.org/2000/svg" p-id="2886" xmlns:xlink="http://www.w3.org/1999/xlink" width="128" height="128"><defs><style type="text/css">@font-face { font-family: feedback-iconfont; src: url("//at.alicdn.com/t/font_1031158_1uhr8ri0pk5.eot?#iefix") format("embedded-opentype"), url("//at.alicdn.com/t/font_1031158_1uhr8ri0pk5.woff2") format("woff2"), url("//at.alicdn.com/t/font_1031158_1uhr8ri0pk5.woff") format("woff"), url("//at.alicdn.com/t/font_1031158_1uhr8ri0pk5.ttf") format("truetype"), url("//at.alicdn.com/t/font_1031158_1uhr8ri0pk5.svg#iconfont") format("svg"); }
</style></defs><path d="M789.333333 106.666667H234.666667C198.4 106.666667 170.666667 134.4 170.666667 170.666667v676.266666c0 36.266667 27.733333 64 64 64h554.666666c36.266667 0 64-27.733333 64-64V170.666667c0-36.266667-27.733333-64-64-64z m21.333334 740.266666c0 12.8-8.533333 21.333333-21.333334 21.333334H234.666667c-12.8 0-21.333333-8.533333-21.333334-21.333334V170.666667c0-12.8 8.533333-21.333333 21.333334-21.333334h554.666666c12.8 0 21.333333 8.533333 21.333334 21.333334v676.266666z" p-id="2887" fill="#4790C4"></path><path d="M704 298.666667H469.333333c-12.8 0-21.333333 8.533333-21.333333 21.333333s8.533333 21.333333 21.333333 21.333333h234.666667c12.8 0 21.333333-8.533333 21.333333-21.333333s-8.533333-21.333333-21.333333-21.333333z" p-id="2888" fill="#4790C4"></path><path d="M341.333333 320m-42.666666 0a42.666667 42.666667 0 1 0 85.333333 0 42.666667 42.666667 0 1 0-85.333333 0Z" p-id="2889" fill="#4790C4"></path><path d="M704 494.933333H469.333333c-12.8 0-21.333333 8.533333-21.333333 21.333334s8.533333 21.333333 21.333333 21.333333h234.666667c12.8 0 21.333333-8.533333 21.333333-21.333333s-8.533333-21.333333-21.333333-21.333334z" p-id="2890" fill="#4790C4"></path><path d="M341.333333 516.266667m-42.666666 0a42.666667 42.666667 0 1 0 85.333333 0 42.666667 42.666667 0 1 0-85.333333 0Z" p-id="2891" fill="#4790C4"></path><path d="M704 682.666667H469.333333c-12.8 0-21.333333 8.533333-21.333333 21.333333s8.533333 21.333333 21.333333 21.333333h234.666667c12.8 0 21.333333-8.533333 21.333333-21.333333s-8.533333-21.333333-21.333333-21.333333z" p-id="2892" fill="#4790C4"></path><path d="M341.333333 704m-42.666666 0a42.666667 42.666667 0 1 0 85.333333 0 42.666667 42.666667 0 1 0-85.333333 0Z" p-id="2893" fill="#4790C4"></path></svg>